<svg width="266" height="73" viewBox="0 0 266 73" fill="none" xmlns="http://www.w3.org/2000/svg">
<path d="M89.633 53.4028H98.9655V57.9067H83.9523V29.5845H89.633V53.4028ZM112.558 58.2719C110.394 58.2719 108.446 57.7985 106.715 56.8518C104.984 55.8779 103.618 54.5119 102.617 52.7536C101.643 50.9952 101.156 48.9664 101.156 46.6671C101.156 44.3678 101.656 42.339 102.657 40.5807C103.685 38.8224 105.078 37.4698 106.837 36.523C108.595 35.5492 110.556 35.0623 112.72 35.0623C114.884 35.0623 116.845 35.5492 118.604 36.523C120.362 37.4698 121.742 38.8224 122.743 40.5807C123.771 42.339 124.284 44.3678 124.284 46.6671C124.284 48.9664 123.757 50.9952 122.702 52.7536C121.674 54.5119 120.267 55.8779 118.482 56.8518C116.724 57.7985 114.749 58.2719 112.558 58.2719ZM112.558 53.3216C113.586 53.3216 114.546 53.0782 115.439 52.5912C116.359 52.0773 117.089 51.3199 117.63 50.319C118.171 49.3181 118.441 48.1008 118.441 46.6671C118.441 44.5301 117.873 42.8935 116.737 41.7574C115.628 40.5942 114.262 40.0126 112.639 40.0126C111.016 40.0126 109.65 40.5942 108.541 41.7574C107.459 42.8935 106.918 44.5301 106.918 46.6671C106.918 48.8041 107.445 50.4542 108.5 51.6174C109.582 52.7536 110.935 53.3216 112.558 53.3216ZM138.433 58.2719C136.269 58.2719 134.321 57.7985 132.59 56.8518C130.859 55.8779 129.493 54.5119 128.492 52.7536C127.518 50.9952 127.031 48.9664 127.031 46.6671C127.031 44.3678 127.532 42.339 128.533 40.5807C129.561 38.8224 130.954 37.4698 132.712 36.523C134.47 35.5492 136.431 35.0623 138.596 35.0623C140.76 35.0623 142.721 35.5492 144.479 36.523C146.237 37.4698 147.617 38.8224 148.618 40.5807C149.646 42.339 150.16 44.3678 150.16 46.6671C150.16 48.9664 149.632 50.9952 148.577 52.7536C147.549 54.5119 146.143 55.8779 144.357 56.8518C142.599 57.7985 140.624 58.2719 138.433 58.2719ZM138.433 53.3216C139.461 53.3216 140.421 53.0782 141.314 52.5912C142.234 52.0773 142.964 51.3199 143.505 50.319C144.046 49.3181 144.317 48.1008 144.317 46.6671C144.317 44.5301 143.749 42.8935 142.613 41.7574C141.503 40.5942 140.137 40.0126 138.514 40.0126C136.891 40.0126 135.525 40.5942 134.416 41.7574C133.334 42.8935 132.793 44.5301 132.793 46.6671C132.793 48.8041 133.321 50.4542 134.376 51.6174C135.458 52.7536 136.81 53.3216 138.433 53.3216Z" fill="white"/>
<path d="M170.395 43.3804C171.991 43.678 173.303 44.476 174.331 45.7744C175.359 47.0729 175.873 48.5607 175.873 50.2378C175.873 51.7527 175.494 53.0917 174.737 54.2549C174.006 55.391 172.938 56.2837 171.531 56.9329C170.124 57.5821 168.461 57.9067 166.54 57.9067H154.327V29.5845H166.013C167.933 29.5845 169.583 29.8956 170.963 30.5178C172.37 31.1399 173.425 32.0056 174.128 33.1146C174.858 34.2237 175.224 35.4816 175.224 36.8882C175.224 38.5383 174.777 39.9179 173.885 41.027C173.019 42.1361 171.856 42.9206 170.395 43.3804ZM160.007 41.2705H165.201C166.554 41.2705 167.595 40.9729 168.326 40.3778C169.056 39.7556 169.421 38.8765 169.421 37.7403C169.421 36.6042 169.056 35.725 168.326 35.1029C167.595 34.4807 166.554 34.1696 165.201 34.1696H160.007V41.2705ZM165.729 53.281C167.108 53.281 168.177 52.9564 168.934 52.3072C169.719 51.658 170.111 50.7383 170.111 49.548C170.111 48.3307 169.705 47.384 168.894 46.7077C168.082 46.0044 166.987 45.6527 165.607 45.6527H160.007V53.281H165.729ZM178.939 46.586C178.939 44.3137 179.386 42.2984 180.278 40.5401C181.198 38.7818 182.429 37.4292 183.971 36.4825C185.54 35.5357 187.285 35.0623 189.205 35.0623C190.882 35.0623 192.343 35.4004 193.587 36.0767C194.859 36.753 195.873 37.6051 196.631 38.633V35.4275H202.352V57.9067H196.631V54.6201C195.9 55.675 194.886 56.5542 193.587 57.2575C192.316 57.9338 190.842 58.2719 189.165 58.2719C187.271 58.2719 185.54 57.785 183.971 56.8112C182.429 55.8373 181.198 54.4713 180.278 52.713C179.386 50.9276 178.939 48.8853 178.939 46.586ZM196.631 46.6671C196.631 45.2875 196.36 44.1108 195.819 43.137C195.278 42.1361 194.548 41.3787 193.628 40.8647C192.708 40.3237 191.721 40.0532 190.666 40.0532C189.611 40.0532 188.637 40.3102 187.744 40.8241C186.852 41.3381 186.121 42.0955 185.553 43.0964C185.012 44.0702 184.742 45.2334 184.742 46.586C184.742 47.9385 185.012 49.1287 185.553 50.1567C186.121 51.1576 186.852 51.9285 187.744 52.4695C188.664 53.0105 189.638 53.281 190.666 53.281C191.721 53.281 192.708 53.0241 193.628 52.5101C194.548 51.9691 195.278 51.2117 195.819 50.2378C196.36 49.2369 196.631 48.0467 196.631 46.6671ZM220.357 35.1029C223.035 35.1029 225.199 35.955 226.849 37.6592C228.499 39.3363 229.324 41.6898 229.324 44.7194V57.9067H223.644V45.4904C223.644 43.705 223.197 42.339 222.305 41.3922C221.412 40.4184 220.195 39.9314 218.653 39.9314C217.084 39.9314 215.84 40.4184 214.92 41.3922C214.027 42.339 213.581 43.705 213.581 45.4904V57.9067H207.9V35.4275H213.581V38.2272C214.338 37.2534 215.299 36.496 216.462 35.955C217.652 35.3869 218.95 35.1029 220.357 35.1029ZM248.035 57.9067L240.407 48.3307V57.9067H234.726V27.8803H240.407V44.9629L247.954 35.4275H255.339L245.439 46.7077L255.42 57.9067H248.035Z" fill="#5CE1E6"/>
<path d="M36.0678 0C28.9343 -8.50666e-08 21.9609 2.11534 16.0296 6.07852C10.0983 10.0417 5.47539 15.6747 2.7455 22.2652C0.0156126 28.8558 -0.698651 36.1078 0.693031 43.1043C2.08471 50.1007 5.51984 56.5274 10.564 61.5716C15.6082 66.6157 22.0348 70.0509 29.0313 71.4426C36.0278 72.8342 43.2798 72.12 49.8703 69.3901C56.4609 66.6602 62.0939 62.0373 66.0571 56.106C70.0202 50.1747 72.1356 43.2013 72.1356 36.0678L54.1017 36.0678C54.1017 39.6346 53.044 43.1212 51.0624 46.0869C49.0808 49.0526 46.2643 51.364 42.9691 52.7289C39.6738 54.0939 36.0478 54.451 32.5495 53.7552C29.0513 53.0593 25.838 51.3418 23.3159 48.8197C20.7938 46.2976 19.0763 43.0843 18.3804 39.586C17.6846 36.0878 18.0417 32.4618 19.4066 29.1665C20.7716 25.8713 23.083 23.0547 26.0487 21.0732C29.0144 19.0916 32.501 18.0339 36.0678 18.0339V0Z" fill="white"/>
<path d="M36.0678 0C31.3313 -5.64821e-08 26.6412 0.932921 22.2652 2.7455C17.8893 4.55807 13.9132 7.21481 10.564 10.564C7.21481 13.9132 4.55807 17.8893 2.7455 22.2653C0.93292 26.6412 -7.1519e-07 31.3313 0 36.0678H18.0339C18.0339 33.6996 18.5004 31.3545 19.4066 29.1665C20.3129 26.9785 21.6413 24.9905 23.3159 23.3159C24.9905 21.6413 26.9785 20.3129 29.1665 19.4066C31.3545 18.5004 33.6996 18.0339 36.0678 18.0339V0Z" fill="#5CE1E6"/>
<circle cx="36.0678" cy="36.0678" r="11.2712" fill="#5CE1E6"/>
<path d="M47.339 36.0678C47.339 34.5877 47.0474 33.122 46.481 31.7545C45.9146 30.387 45.0843 29.1445 44.0377 28.0979C42.9911 27.0513 41.7486 26.221 40.3811 25.6546C39.0136 25.0882 37.5479 24.7966 36.0678 24.7966C34.5876 24.7966 33.122 25.0882 31.7545 25.6546C30.387 26.221 29.1445 27.0513 28.0979 28.0979C27.0512 29.1445 26.221 30.387 25.6546 31.7545C25.0881 33.122 24.7966 34.5877 24.7966 36.0678L36.0678 36.0678H47.339Z" fill="white"/>
</svg>
